<svg width="71" height="24" viewBox="0 0 71 24" fill="none" xmlns="http://www.w3.org/2000/svg">
<mask id="path-1-inside-1_3_5" fill="white">
<path d="M12.248 5.328L7.75998 18H4.63998L0.151978 5.328H3.05598L6.24798 15.768L9.48798 5.328H12.248ZM17.758 12.528C17.838 13.76 18.191 14.688 18.815 15.312C19.455 15.92 20.255 16.224 21.215 16.224C21.807 16.224 22.367 16.136 22.895 15.96C23.4789 15.7479 24.0349 15.4658 24.551 15.12L25.703 16.752C25.0847 17.2626 24.3766 17.6533 23.615 17.904C22.815 18.176 21.975 18.312 21.095 18.312C19.159 18.312 17.655 17.712 16.583 16.512C15.511 15.296 14.975 13.68 14.975 11.664C14.975 10.4 15.207 9.264 15.671 8.256C16.135 7.232 16.807 6.432 17.687 5.856C18.567 5.28 19.591 4.992 20.759 4.992C22.439 4.992 23.767 5.56 24.743 6.696C25.735 7.816 26.231 9.36 26.231 11.328C26.231 11.808 26.207 12.208 26.159 12.528H17.759H17.758ZM20.783 6.984C19.919 6.984 19.215 7.296 18.671 7.92C18.127 8.544 17.815 9.472 17.735 10.704H23.615C23.583 9.504 23.327 8.584 22.847 7.944C22.367 7.304 21.679 6.984 20.783 6.984ZM35.485 14.544C35.485 15.616 36.125 16.152 37.405 16.152C38.045 16.152 38.717 16.008 39.421 15.72L40.093 17.592C39.213 18.072 38.125 18.312 36.829 18.312C35.565 18.312 34.573 17.96 33.853 17.256C33.149 16.536 32.797 15.552 32.797 14.304V2.208H28.981V0.239998H35.485V14.544ZM49.395 4.992C51.22 4.992 52.628 5.592 53.62 6.792C54.612 7.976 55.108 9.592 55.108 11.64C55.108 13.688 54.604 15.312 53.596 16.512C52.588 17.712 51.18 18.312 49.372 18.312C47.548 18.312 46.132 17.728 45.124 16.56C44.132 15.376 43.636 13.744 43.636 11.664C43.636 9.648 44.14 8.032 45.148 6.816C46.172 5.6 47.587 4.992 49.395 4.992ZM49.395 7.08C48.42 7.08 47.684 7.456 47.188 8.208C46.708 8.96 46.468 10.112 46.468 11.664C46.468 13.232 46.708 14.392 47.188 15.144C47.668 15.88 48.396 16.248 49.372 16.248C50.348 16.248 51.076 15.872 51.556 15.12C52.036 14.368 52.276 13.208 52.276 11.64C52.276 10.088 52.036 8.944 51.556 8.208C51.076 7.456 50.355 7.08 49.395 7.08ZM70.075 5.952C69.5608 6.12279 69.0292 6.23549 68.49 6.288C67.915 6.336 67.219 6.36 66.403 6.36C67.17 6.712 67.746 7.152 68.13 7.68C68.515 8.208 68.707 8.848 68.707 9.6C68.707 10.432 68.499 11.168 68.083 11.808C67.683 12.448 67.106 12.952 66.355 13.32C65.603 13.688 64.715 13.872 63.69 13.872C62.97 13.872 62.395 13.8 61.963 13.656C61.7896 13.7803 61.6492 13.9451 61.554 14.136C61.4578 14.3126 61.4082 14.5109 61.41 14.712C61.41 15.352 61.93 15.672 62.97 15.672H65.179C66.074 15.672 66.874 15.824 67.579 16.128C68.283 16.432 68.827 16.856 69.211 17.4C69.611 17.928 69.811 18.528 69.811 19.2C69.811 20.464 69.266 21.44 68.178 22.128C67.091 22.832 65.522 23.184 63.475 23.184C62.05 23.184 60.922 23.032 60.09 22.728C59.274 22.44 58.69 22.008 58.338 21.432C58.002 20.872 57.834 20.144 57.834 19.248H60.234C60.234 19.728 60.322 20.104 60.498 20.376C60.691 20.664 61.018 20.872 61.483 21C61.947 21.144 62.619 21.216 63.499 21.216C64.779 21.216 65.699 21.056 66.259 20.736C66.819 20.432 67.099 19.976 67.099 19.368C67.099 18.856 66.874 18.456 66.427 18.168C65.994 17.896 65.402 17.76 64.65 17.76H62.466C61.33 17.76 60.466 17.528 59.874 17.064C59.298 16.6 59.01 16.016 59.01 15.312C59.01 14.88 59.13 14.464 59.37 14.064C59.61 13.664 59.955 13.32 60.403 13.032C59.651 12.632 59.099 12.152 58.746 11.592C58.41 11.016 58.242 10.312 58.242 9.48C58.242 8.6 58.467 7.824 58.914 7.152C59.362 6.464 59.986 5.936 60.786 5.568C61.586 5.184 62.498 4.992 63.522 4.992C64.899 5.008 65.987 4.912 66.787 4.704C67.603 4.496 68.467 4.168 69.378 3.72L70.075 5.952ZM63.546 6.864C62.699 6.864 62.059 7.104 61.626 7.584C61.195 8.048 60.978 8.68 60.978 9.48C60.978 10.296 61.194 10.944 61.626 11.424C62.075 11.888 62.722 12.12 63.571 12.12C64.371 12.12 64.978 11.888 65.394 11.424C65.81 10.96 66.018 10.296 66.018 9.432C66.018 7.72 65.194 6.864 63.546 6.864Z"/>
</mask>
<path d="M12.248 5.328L7.75998 18H4.63998L0.151978 5.328H3.05598L6.24798 15.768L9.48798 5.328H12.248ZM17.758 12.528C17.838 13.76 18.191 14.688 18.815 15.312C19.455 15.92 20.255 16.224 21.215 16.224C21.807 16.224 22.367 16.136 22.895 15.96C23.4789 15.7479 24.0349 15.4658 24.551 15.12L25.703 16.752C25.0847 17.2626 24.3766 17.6533 23.615 17.904C22.815 18.176 21.975 18.312 21.095 18.312C19.159 18.312 17.655 17.712 16.583 16.512C15.511 15.296 14.975 13.68 14.975 11.664C14.975 10.4 15.207 9.264 15.671 8.256C16.135 7.232 16.807 6.432 17.687 5.856C18.567 5.28 19.591 4.992 20.759 4.992C22.439 4.992 23.767 5.56 24.743 6.696C25.735 7.816 26.231 9.36 26.231 11.328C26.231 11.808 26.207 12.208 26.159 12.528H17.759H17.758ZM20.783 6.984C19.919 6.984 19.215 7.296 18.671 7.92C18.127 8.544 17.815 9.472 17.735 10.704H23.615C23.583 9.504 23.327 8.584 22.847 7.944C22.367 7.304 21.679 6.984 20.783 6.984ZM35.485 14.544C35.485 15.616 36.125 16.152 37.405 16.152C38.045 16.152 38.717 16.008 39.421 15.72L40.093 17.592C39.213 18.072 38.125 18.312 36.829 18.312C35.565 18.312 34.573 17.96 33.853 17.256C33.149 16.536 32.797 15.552 32.797 14.304V2.208H28.981V0.239998H35.485V14.544ZM49.395 4.992C51.22 4.992 52.628 5.592 53.62 6.792C54.612 7.976 55.108 9.592 55.108 11.64C55.108 13.688 54.604 15.312 53.596 16.512C52.588 17.712 51.18 18.312 49.372 18.312C47.548 18.312 46.132 17.728 45.124 16.56C44.132 15.376 43.636 13.744 43.636 11.664C43.636 9.648 44.14 8.032 45.148 6.816C46.172 5.6 47.587 4.992 49.395 4.992ZM49.395 7.08C48.42 7.08 47.684 7.456 47.188 8.208C46.708 8.96 46.468 10.112 46.468 11.664C46.468 13.232 46.708 14.392 47.188 15.144C47.668 15.88 48.396 16.248 49.372 16.248C50.348 16.248 51.076 15.872 51.556 15.12C52.036 14.368 52.276 13.208 52.276 11.64C52.276 10.088 52.036 8.944 51.556 8.208C51.076 7.456 50.355 7.08 49.395 7.08ZM70.075 5.952C69.5608 6.12279 69.0292 6.23549 68.49 6.288C67.915 6.336 67.219 6.36 66.403 6.36C67.17 6.712 67.746 7.152 68.13 7.68C68.515 8.208 68.707 8.848 68.707 9.6C68.707 10.432 68.499 11.168 68.083 11.808C67.683 12.448 67.106 12.952 66.355 13.32C65.603 13.688 64.715 13.872 63.69 13.872C62.97 13.872 62.395 13.8 61.963 13.656C61.7896 13.7803 61.6492 13.9451 61.554 14.136C61.4578 14.3126 61.4082 14.5109 61.41 14.712C61.41 15.352 61.93 15.672 62.97 15.672H65.179C66.074 15.672 66.874 15.824 67.579 16.128C68.283 16.432 68.827 16.856 69.211 17.4C69.611 17.928 69.811 18.528 69.811 19.2C69.811 20.464 69.266 21.44 68.178 22.128C67.091 22.832 65.522 23.184 63.475 23.184C62.05 23.184 60.922 23.032 60.09 22.728C59.274 22.44 58.69 22.008 58.338 21.432C58.002 20.872 57.834 20.144 57.834 19.248H60.234C60.234 19.728 60.322 20.104 60.498 20.376C60.691 20.664 61.018 20.872 61.483 21C61.947 21.144 62.619 21.216 63.499 21.216C64.779 21.216 65.699 21.056 66.259 20.736C66.819 20.432 67.099 19.976 67.099 19.368C67.099 18.856 66.874 18.456 66.427 18.168C65.994 17.896 65.402 17.76 64.65 17.76H62.466C61.33 17.76 60.466 17.528 59.874 17.064C59.298 16.6 59.01 16.016 59.01 15.312C59.01 14.88 59.13 14.464 59.37 14.064C59.61 13.664 59.955 13.32 60.403 13.032C59.651 12.632 59.099 12.152 58.746 11.592C58.41 11.016 58.242 10.312 58.242 9.48C58.242 8.6 58.467 7.824 58.914 7.152C59.362 6.464 59.986 5.936 60.786 5.568C61.586 5.184 62.498 4.992 63.522 4.992C64.899 5.008 65.987 4.912 66.787 4.704C67.603 4.496 68.467 4.168 69.378 3.72L70.075 5.952ZM63.546 6.864C62.699 6.864 62.059 7.104 61.626 7.584C61.195 8.048 60.978 8.68 60.978 9.48C60.978 10.296 61.194 10.944 61.626 11.424C62.075 11.888 62.722 12.12 63.571 12.12C64.371 12.12 64.978 11.888 65.394 11.424C65.81 10.96 66.018 10.296 66.018 9.432C66.018 7.72 65.194 6.864 63.546 6.864Z" fill="white"/>
<path d="M12.248 5.328L7.75998 18H4.63998L0.151978 5.328H3.05598L6.24798 15.768L9.48798 5.328H12.248ZM17.758 12.528C17.838 13.76 18.191 14.688 18.815 15.312C19.455 15.92 20.255 16.224 21.215 16.224C21.807 16.224 22.367 16.136 22.895 15.96C23.4789 15.7479 24.0349 15.4658 24.551 15.12L25.703 16.752C25.0847 17.2626 24.3766 17.6533 23.615 17.904C22.815 18.176 21.975 18.312 21.095 18.312C19.159 18.312 17.655 17.712 16.583 16.512C15.511 15.296 14.975 13.68 14.975 11.664C14.975 10.4 15.207 9.264 15.671 8.256C16.135 7.232 16.807 6.432 17.687 5.856C18.567 5.28 19.591 4.992 20.759 4.992C22.439 4.992 23.767 5.56 24.743 6.696C25.735 7.816 26.231 9.36 26.231 11.328C26.231 11.808 26.207 12.208 26.159 12.528H17.759H17.758ZM20.783 6.984C19.919 6.984 19.215 7.296 18.671 7.92C18.127 8.544 17.815 9.472 17.735 10.704H23.615C23.583 9.504 23.327 8.584 22.847 7.944C22.367 7.304 21.679 6.984 20.783 6.984ZM35.485 14.544C35.485 15.616 36.125 16.152 37.405 16.152C38.045 16.152 38.717 16.008 39.421 15.72L40.093 17.592C39.213 18.072 38.125 18.312 36.829 18.312C35.565 18.312 34.573 17.96 33.853 17.256C33.149 16.536 32.797 15.552 32.797 14.304V2.208H28.981V0.239998H35.485V14.544ZM49.395 4.992C51.22 4.992 52.628 5.592 53.62 6.792C54.612 7.976 55.108 9.592 55.108 11.64C55.108 13.688 54.604 15.312 53.596 16.512C52.588 17.712 51.18 18.312 49.372 18.312C47.548 18.312 46.132 17.728 45.124 16.56C44.132 15.376 43.636 13.744 43.636 11.664C43.636 9.648 44.14 8.032 45.148 6.816C46.172 5.6 47.587 4.992 49.395 4.992ZM49.395 7.08C48.42 7.08 47.684 7.456 47.188 8.208C46.708 8.96 46.468 10.112 46.468 11.664C46.468 13.232 46.708 14.392 47.188 15.144C47.668 15.88 48.396 16.248 49.372 16.248C50.348 16.248 51.076 15.872 51.556 15.12C52.036 14.368 52.276 13.208 52.276 11.64C52.276 10.088 52.036 8.944 51.556 8.208C51.076 7.456 50.355 7.08 49.395 7.08ZM70.075 5.952C69.5608 6.12279 69.0292 6.23549 68.49 6.288C67.915 6.336 67.219 6.36 66.403 6.36C67.17 6.712 67.746 7.152 68.13 7.68C68.515 8.208 68.707 8.848 68.707 9.6C68.707 10.432 68.499 11.168 68.083 11.808C67.683 12.448 67.106 12.952 66.355 13.32C65.603 13.688 64.715 13.872 63.69 13.872C62.97 13.872 62.395 13.8 61.963 13.656C61.7896 13.7803 61.6492 13.9451 61.554 14.136C61.4578 14.3126 61.4082 14.5109 61.41 14.712C61.41 15.352 61.93 15.672 62.97 15.672H65.179C66.074 15.672 66.874 15.824 67.579 16.128C68.283 16.432 68.827 16.856 69.211 17.4C69.611 17.928 69.811 18.528 69.811 19.2C69.811 20.464 69.266 21.44 68.178 22.128C67.091 22.832 65.522 23.184 63.475 23.184C62.05 23.184 60.922 23.032 60.09 22.728C59.274 22.44 58.69 22.008 58.338 21.432C58.002 20.872 57.834 20.144 57.834 19.248H60.234C60.234 19.728 60.322 20.104 60.498 20.376C60.691 20.664 61.018 20.872 61.483 21C61.947 21.144 62.619 21.216 63.499 21.216C64.779 21.216 65.699 21.056 66.259 20.736C66.819 20.432 67.099 19.976 67.099 19.368C67.099 18.856 66.874 18.456 66.427 18.168C65.994 17.896 65.402 17.76 64.65 17.76H62.466C61.33 17.76 60.466 17.528 59.874 17.064C59.298 16.6 59.01 16.016 59.01 15.312C59.01 14.88 59.13 14.464 59.37 14.064C59.61 13.664 59.955 13.32 60.403 13.032C59.651 12.632 59.099 12.152 58.746 11.592C58.41 11.016 58.242 10.312 58.242 9.48C58.242 8.6 58.467 7.824 58.914 7.152C59.362 6.464 59.986 5.936 60.786 5.568C61.586 5.184 62.498 4.992 63.522 4.992C64.899 5.008 65.987 4.912 66.787 4.704C67.603 4.496 68.467 4.168 69.378 3.72L70.075 5.952ZM63.546 6.864C62.699 6.864 62.059 7.104 61.626 7.584C61.195 8.048 60.978 8.68 60.978 9.48C60.978 10.296 61.194 10.944 61.626 11.424C62.075 11.888 62.722 12.12 63.571 12.12C64.371 12.12 64.978 11.888 65.394 11.424C65.81 10.96 66.018 10.296 66.018 9.432C66.018 7.72 65.194 6.864 63.546 6.864Z" stroke="white" stroke-width="2" mask="url(#path-1-inside-1_3_5)"/>
<path d="M12.248 5.328L7.75998 18H4.63998L0.151978 5.328H3.05598L6.24798 15.768L9.48798 5.328H12.248ZM17.758 12.528C17.838 13.76 18.191 14.688 18.815 15.312C19.455 15.92 20.255 16.224 21.215 16.224C21.807 16.224 22.367 16.136 22.895 15.96C23.4789 15.7479 24.0349 15.4658 24.551 15.12L25.703 16.752C25.0847 17.2626 24.3766 17.6533 23.615 17.904C22.815 18.176 21.975 18.312 21.095 18.312C19.159 18.312 17.655 17.712 16.583 16.512C15.511 15.296 14.975 13.68 14.975 11.664C14.975 10.4 15.207 9.264 15.671 8.256C16.135 7.232 16.807 6.432 17.687 5.856C18.567 5.28 19.591 4.992 20.759 4.992C22.439 4.992 23.767 5.56 24.743 6.696C25.735 7.816 26.231 9.36 26.231 11.328C26.231 11.808 26.207 12.208 26.159 12.528H17.759H17.758ZM20.783 6.984C19.919 6.984 19.215 7.296 18.671 7.92C18.127 8.544 17.815 9.472 17.735 10.704H23.615C23.583 9.504 23.327 8.584 22.847 7.944C22.367 7.304 21.679 6.984 20.783 6.984ZM35.485 14.544C35.485 15.616 36.125 16.152 37.405 16.152C38.045 16.152 38.717 16.008 39.421 15.72L40.093 17.592C39.213 18.072 38.125 18.312 36.829 18.312C35.565 18.312 34.573 17.96 33.853 17.256C33.149 16.536 32.797 15.552 32.797 14.304V2.208H28.981V0.239998H35.485V14.544ZM49.395 4.992C51.22 4.992 52.628 5.592 53.62 6.792C54.612 7.976 55.108 9.592 55.108 11.64C55.108 13.688 54.604 15.312 53.596 16.512C52.588 17.712 51.18 18.312 49.372 18.312C47.548 18.312 46.132 17.728 45.124 16.56C44.132 15.376 43.636 13.744 43.636 11.664C43.636 9.648 44.14 8.032 45.148 6.816C46.172 5.6 47.587 4.992 49.395 4.992ZM49.395 7.08C48.42 7.08 47.684 7.456 47.188 8.208C46.708 8.96 46.468 10.112 46.468 11.664C46.468 13.232 46.708 14.392 47.188 15.144C47.668 15.88 48.396 16.248 49.372 16.248C50.348 16.248 51.076 15.872 51.556 15.12C52.036 14.368 52.276 13.208 52.276 11.64C52.276 10.088 52.036 8.944 51.556 8.208C51.076 7.456 50.355 7.08 49.395 7.08ZM70.075 5.952C69.5608 6.12279 69.0292 6.23549 68.49 6.288C67.915 6.336 67.219 6.36 66.403 6.36C67.17 6.712 67.746 7.152 68.13 7.68C68.515 8.208 68.707 8.848 68.707 9.6C68.707 10.432 68.499 11.168 68.083 11.808C67.683 12.448 67.106 12.952 66.355 13.32C65.603 13.688 64.715 13.872 63.69 13.872C62.97 13.872 62.395 13.8 61.963 13.656C61.7896 13.7803 61.6492 13.9451 61.554 14.136C61.4578 14.3126 61.4082 14.5109 61.41 14.712C61.41 15.352 61.93 15.672 62.97 15.672H65.179C66.074 15.672 66.874 15.824 67.579 16.128C68.283 16.432 68.827 16.856 69.211 17.4C69.611 17.928 69.811 18.528 69.811 19.2C69.811 20.464 69.266 21.44 68.178 22.128C67.091 22.832 65.522 23.184 63.475 23.184C62.05 23.184 60.922 23.032 60.09 22.728C59.274 22.44 58.69 22.008 58.338 21.432C58.002 20.872 57.834 20.144 57.834 19.248H60.234C60.234 19.728 60.322 20.104 60.498 20.376C60.691 20.664 61.018 20.872 61.483 21C61.947 21.144 62.619 21.216 63.499 21.216C64.779 21.216 65.699 21.056 66.259 20.736C66.819 20.432 67.099 19.976 67.099 19.368C67.099 18.856 66.874 18.456 66.427 18.168C65.994 17.896 65.402 17.76 64.65 17.76H62.466C61.33 17.76 60.466 17.528 59.874 17.064C59.298 16.6 59.01 16.016 59.01 15.312C59.01 14.88 59.13 14.464 59.37 14.064C59.61 13.664 59.955 13.32 60.403 13.032C59.651 12.632 59.099 12.152 58.746 11.592C58.41 11.016 58.242 10.312 58.242 9.48C58.242 8.6 58.467 7.824 58.914 7.152C59.362 6.464 59.986 5.936 60.786 5.568C61.586 5.184 62.498 4.992 63.522 4.992C64.899 5.008 65.987 4.912 66.787 4.704C67.603 4.496 68.467 4.168 69.378 3.72L70.075 5.952ZM63.546 6.864C62.699 6.864 62.059 7.104 61.626 7.584C61.195 8.048 60.978 8.68 60.978 9.48C60.978 10.296 61.194 10.944 61.626 11.424C62.075 11.888 62.722 12.12 63.571 12.12C64.371 12.12 64.978 11.888 65.394 11.424C65.81 10.96 66.018 10.296 66.018 9.432C66.018 7.72 65.194 6.864 63.546 6.864Z" stroke="white" stroke-width="2" mask="url(#path-1-inside-1_3_5)"/>
</svg>
